<svg width="25" height="27" viewBox="0 0 25 27" fill="none" xmlns="http://www.w3.org/2000/svg">
<path d="M10.5056 1.37731C11.0527 0.921341 11.7451 0.671265 12.4606 0.671265C13.1761 0.671265 13.8686 0.921341 14.4157 1.37731L23.5168 8.97064C24.2018 9.53998 24.5955 10.3786 24.5955 11.264V24.3333C24.5955 24.9521 24.3469 25.5456 23.9044 25.9832C23.4619 26.4208 22.8617 26.6666 22.2359 26.6666H18.191C17.5652 26.6666 16.965 26.4208 16.5225 25.9832C16.08 25.5456 15.8314 24.9521 15.8314 24.3333V17.6666C15.8314 17.4014 15.7249 17.1471 15.5352 16.9595C15.3456 16.772 15.0884 16.6666 14.8202 16.6666H10.1011C9.83289 16.6666 9.57568 16.772 9.38604 16.9595C9.19639 17.1471 9.08985 17.4014 9.08985 17.6666V24.3333C9.08985 24.9521 8.84126 25.5456 8.39876 25.9832C7.95625 26.4208 7.35609 26.6666 6.7303 26.6666H2.68536C2.3755 26.6666 2.06867 26.6063 1.7824 26.489C1.49612 26.3718 1.23601 26.1999 1.0169 25.9832C0.797798 25.7666 0.623994 25.5093 0.505416 25.2262C0.386837 24.9431 0.325806 24.6397 0.325806 24.3333V11.2626C0.325806 10.3786 0.719513 9.53998 1.40446 8.96931L10.5056 1.37731Z" fill="#FF8D6D"/>
</svg>
