<svg width="20" height="24" viewBox="0 0 20 24" fill="none" xmlns="http://www.w3.org/2000/svg">
<path d="M18.3371 0C18.6673 4.30807e-05 18.9861 0.119942 19.2329 0.336954C19.4797 0.553966 19.6373 0.852998 19.676 1.17733L19.6854 1.33333V22.6667C19.685 23.0065 19.5534 23.3334 19.3175 23.5805C19.0816 23.8276 18.7592 23.9763 18.4161 23.9962C18.073 24.0161 17.7352 23.9058 17.4717 23.6876C17.2082 23.4695 17.0388 23.1601 16.9982 22.8227L16.9888 22.6667V16H15.6405C15.3102 16 14.9915 15.8801 14.7447 15.663C14.4979 15.446 14.3402 15.147 14.3016 14.8227L14.2921 14.6667V6.66667C14.2921 3.72 16.3146 0 18.3371 0ZM10.2472 0C10.5774 4.30807e-05 10.8962 0.119942 11.143 0.336954C11.3898 0.553966 11.5474 0.852998 11.5861 1.17733L11.5955 1.33333V8C11.5953 9.18249 11.198 10.3314 10.4658 11.2664C9.73371 12.2013 8.70826 12.8693 7.55056 13.1653V22.6667C7.55018 23.0065 7.41859 23.3334 7.18268 23.5805C6.94676 23.8276 6.62433 23.9763 6.28127 23.9962C5.9382 24.0161 5.60039 23.9058 5.33686 23.6876C5.07332 23.4695 4.90396 23.1601 4.86337 22.8227L4.85393 22.6667V13.1653C3.74219 12.8811 2.75111 12.2536 2.02485 11.374C1.29859 10.4944 0.875018 9.40869 0.815732 8.27467L0.80899 8V1.33333C0.809372 0.993494 0.940962 0.666624 1.17688 0.419509C1.41279 0.172394 1.73522 0.0236867 2.07829 0.00377051C2.42135 -0.0161456 2.75916 0.0942328 3.0227 0.312353C3.28623 0.530473 3.45559 0.839872 3.49618 1.17733L3.50562 1.33333V8C3.50563 8.46809 3.63024 8.92792 3.86692 9.33329C4.10359 9.73867 4.444 10.0753 4.85393 10.3093V1.33333C4.85432 0.993494 4.98591 0.666624 5.22182 0.419509C5.45773 0.172394 5.78016 0.0236867 6.12323 0.00377051C6.4663 -0.0161456 6.80411 0.0942328 7.06764 0.312353C7.33117 0.530473 7.50054 0.839872 7.54112 1.17733L7.55056 1.33333L7.55191 10.3093C7.92818 10.0943 8.2463 9.79244 8.47918 9.42958C8.71207 9.06672 8.85282 8.65357 8.88944 8.22533L8.89888 8V1.33333C8.89888 0.979711 9.04093 0.640573 9.29379 0.390524C9.54665 0.140476 9.8896 0 10.2472 0Z" fill="#FE724C"/>
</svg>
