<svg width="28" height="28" viewBox="0 0 28 28" fill="none" xmlns="http://www.w3.org/2000/svg">
<path fill-rule="evenodd" clip-rule="evenodd" d="M13.6067 26C20.3085 26 25.7416 20.6273 25.7416 14C25.7416 7.37263 20.3085 1.99996 13.6067 1.99996C6.90494 1.99996 1.47191 7.37263 1.47191 14C1.47191 20.6273 6.90494 26 13.6067 26ZM13.6067 27.3333C21.0535 27.3333 27.0899 21.364 27.0899 14C27.0899 6.63596 21.0535 0.666626 13.6067 0.666626C6.16 0.666626 0.123596 6.63596 0.123596 14C0.123596 21.364 6.16 27.3333 13.6067 27.3333Z" fill="#FF8D6D"/>
<path d="M5.51686 21.7533C5.51686 21.0646 6.03731 20.4826 6.73034 20.4066C11.9315 19.8373 15.3056 19.8886 20.4953 20.4193C20.7544 20.4462 21.0001 20.5472 21.2021 20.7099C21.4042 20.8725 21.554 21.0899 21.6333 21.3354C21.7125 21.5809 21.7177 21.8439 21.6482 22.0922C21.5788 22.3406 21.4377 22.5636 21.2423 22.734C15.1175 28.0133 11.6173 27.9406 5.94832 22.7393C5.67192 22.486 5.51686 22.126 5.51686 21.754V21.7533Z" fill="#FF8D6D"/>
<path fill-rule="evenodd" clip-rule="evenodd" d="M20.4258 21.082C15.2773 20.5553 11.9517 20.506 6.80382 21.0693C6.63437 21.0888 6.47815 21.1695 6.36508 21.2958C6.25201 21.4221 6.19003 21.5853 6.19102 21.754C6.19102 21.9446 6.27124 22.1253 6.40675 22.2506C9.21663 24.828 11.3456 25.9926 13.4267 26C15.5153 26.0073 17.7589 24.852 20.7993 22.232C20.8959 22.147 20.9655 22.036 20.9995 21.9127C21.0335 21.7893 21.0306 21.6588 20.991 21.5371C20.9514 21.4153 20.877 21.3076 20.7766 21.2269C20.6763 21.1462 20.5544 21.0961 20.4258 21.0826V21.082ZM6.65618 19.744C11.9119 19.1686 15.3353 19.2206 20.5654 19.756C20.9553 19.7962 21.3248 19.948 21.6288 20.1927C21.9328 20.4375 22.158 20.7645 22.2769 21.1339C22.3958 21.5033 22.4032 21.8989 22.2982 22.2724C22.1933 22.6458 21.9804 22.9809 21.6858 23.2366C18.6016 25.8953 16.033 27.3433 13.4227 27.3333C10.8049 27.324 8.34967 25.8513 5.49057 23.228C5.28586 23.0394 5.12267 22.8112 5.0112 22.5574C4.89973 22.3037 4.84237 22.03 4.8427 21.7533C4.84172 21.2563 5.02621 20.7763 5.36083 20.4054C5.69546 20.0346 6.15669 19.7988 6.65618 19.7433V19.744Z" fill="#FF8D6D"/>
<path d="M19 11.3333C19 12.7478 18.4318 14.1044 17.4204 15.1046C16.4089 16.1048 15.0371 16.6667 13.6067 16.6667C12.1764 16.6667 10.8046 16.1048 9.79313 15.1046C8.7817 14.1044 8.21349 12.7478 8.21349 11.3333C8.21349 9.91885 8.7817 8.56229 9.79313 7.5621C10.8046 6.5619 12.1764 6 13.6067 6C15.0371 6 16.4089 6.5619 17.4204 7.5621C18.4318 8.56229 19 9.91885 19 11.3333Z" fill="#FF8D6D"/>
<path fill-rule="evenodd" clip-rule="evenodd" d="M13.6067 15.3333C14.6795 15.3333 15.7084 14.9119 16.467 14.1618C17.2255 13.4116 17.6517 12.3942 17.6517 11.3333C17.6517 10.2725 17.2255 9.25505 16.467 8.50491C15.7084 7.75476 14.6795 7.33333 13.6067 7.33333C12.534 7.33333 11.5051 7.75476 10.7465 8.50491C9.98796 9.25505 9.5618 10.2725 9.5618 11.3333C9.5618 12.3942 9.98796 13.4116 10.7465 14.1618C11.5051 14.9119 12.534 15.3333 13.6067 15.3333ZM13.6067 16.6667C15.0371 16.6667 16.4089 16.1048 17.4204 15.1046C18.4318 14.1044 19 12.7478 19 11.3333C19 9.91885 18.4318 8.56229 17.4204 7.5621C16.4089 6.5619 15.0371 6 13.6067 6C12.1764 6 10.8046 6.5619 9.79313 7.5621C8.7817 8.56229 8.21349 9.91885 8.21349 11.3333C8.21349 12.7478 8.7817 14.1044 9.79313 15.1046C10.8046 16.1048 12.1764 16.6667 13.6067 16.6667Z" fill="#FF8D6D"/>
</svg>
