<svg width="34" height="32" viewBox="0 0 34 32" fill="none" xmlns="http://www.w3.org/2000/svg">
<path d="M17.0337 14.2044C19.3968 14.2044 21.3124 12.334 21.3124 10.0267C21.3124 7.71933 19.3968 5.84888 17.0337 5.84888C14.6707 5.84888 12.7551 7.71933 12.7551 10.0267C12.7551 12.334 14.6707 14.2044 17.0337 14.2044Z" fill="#FF8D6D"/>
<path d="M10.5438 10.4444H10.9753V10.0622C10.9779 8.95072 11.295 7.86215 11.8907 6.91962C12.4864 5.9771 13.3369 5.21823 14.3461 4.72885C14.0473 4.04846 13.5678 3.46079 12.9584 3.02826C12.349 2.59573 11.6326 2.33449 10.8851 2.27228C10.1377 2.21007 9.38714 2.34923 8.71323 2.67496C8.03933 3.00069 7.46722 3.50084 7.05768 4.12228C6.64813 4.74372 6.41644 5.46325 6.38721 6.20445C6.35798 6.94565 6.5323 7.68084 6.89166 8.33193C7.25103 8.98303 7.78201 9.52572 8.42821 9.90236C9.07442 10.279 9.81172 10.4755 10.5618 10.4711L10.5438 10.4444ZM23.1101 10.0266V10.4089H23.5416C24.2817 10.4015 25.0061 10.197 25.6385 9.81684C26.271 9.43669 26.7881 8.89496 27.1355 8.24868C27.4829 7.60239 27.6477 6.87545 27.6125 6.14437C27.5773 5.41329 27.3434 4.70511 26.9355 4.09437C26.5277 3.48364 25.9608 2.99294 25.2947 2.67392C24.6286 2.3549 23.8878 2.21936 23.1503 2.28157C22.4129 2.34378 21.706 2.60143 21.1042 3.02742C20.5023 3.4534 20.0277 4.03196 19.7303 4.70218C20.7398 5.18965 21.5913 5.9466 22.1885 6.8875C22.7858 7.8284 23.105 8.91573 23.1101 10.0266ZM20.8899 14.6222C22.6771 14.972 24.4051 15.5705 26.0225 16.4C26.2503 16.5237 26.4567 16.6828 26.6337 16.8711H31.4157V13.8311C31.4166 13.7145 31.3853 13.5999 31.3251 13.4996C31.2649 13.3993 31.1781 13.3172 31.0742 13.2622C28.7444 12.0571 26.1528 11.4317 23.5236 11.44H22.9303C22.6188 12.6922 21.9024 13.8095 20.8899 14.6222ZM6.7236 18.5955C6.72196 18.1478 6.84422 17.7083 7.07713 17.3244C7.31004 16.9405 7.64473 16.627 8.04495 16.4177C9.66228 15.5883 11.3903 14.9898 13.1775 14.64C12.17 13.8342 11.454 12.7269 11.1371 11.4844H10.5438C7.91464 11.4761 5.32301 12.1016 2.99326 13.3066C2.88932 13.3617 2.80257 13.4438 2.74237 13.544C2.68217 13.6443 2.65082 13.7589 2.65169 13.8755V19.5555H6.7236V18.5955ZM20.1438 23.7244H25.5011V24.9689H20.1438V23.7244Z" fill="#FF8D6D"/>
<path d="M30.3461 18.8978H24.1708V18.0089C24.1708 17.7732 24.0761 17.5471 23.9075 17.3804C23.7389 17.2137 23.5103 17.12 23.2719 17.12C23.0335 17.12 22.8049 17.2137 22.6363 17.3804C22.4677 17.5471 22.373 17.7732 22.373 18.0089V18.8978H20.6292V16.3822C19.4466 16.1367 18.2421 16.0086 17.0337 16C14.1966 15.9883 11.4001 16.666 8.88989 17.9734C8.77808 18.0307 8.68448 18.1175 8.61945 18.2242C8.55441 18.3309 8.52046 18.4532 8.52135 18.5778V23.5645H14.9124V28.9778C14.9124 29.2136 15.0071 29.4396 15.1756 29.6063C15.3442 29.773 15.5728 29.8667 15.8112 29.8667H30.3461C30.5845 29.8667 30.8131 29.773 30.9817 29.6063C31.1502 29.4396 31.2449 29.2136 31.2449 28.9778V19.7867C31.2449 19.5509 31.1502 19.3249 30.9817 19.1582C30.8131 18.9915 30.5845 18.8978 30.3461 18.8978ZM29.4472 28.1067H16.7101V20.6756H22.373V21.4845C22.373 21.7202 22.4677 21.9463 22.6363 22.113C22.8049 22.2797 23.0335 22.3734 23.2719 22.3734C23.5103 22.3734 23.7389 22.2797 23.9075 22.113C24.0761 21.9463 24.1708 21.7202 24.1708 21.4845V20.6756H29.4472V28.1067Z" fill="#FF8D6D"/>
</svg>
