<svg width="23" height="25" viewBox="0 0 23 25" fill="none" xmlns="http://www.w3.org/2000/svg">
<path d="M17.2148 8.44531C19.4297 8.44531 21.2812 6.60547 21.2812 4.37891C21.2812 2.15234 19.4297 0.3125 17.2148 0.3125C14.9766 0.3125 13.1484 2.15234 13.1484 4.37891C13.1484 6.60547 14.9766 8.44531 17.2148 8.44531ZM2.15625 20.375H13.957C13.8633 21.957 12.8555 22.9648 11.4375 22.9648C10.0312 22.9648 9.01172 21.957 8.92969 20.375H7.10156C7.19531 22.625 8.96484 24.6055 11.4375 24.6055C13.9219 24.6055 15.6914 22.625 15.7852 20.375H20.7305C21.832 20.375 22.5 19.8008 22.5 18.957C22.5 17.7852 21.3047 16.7305 20.2969 15.6875C19.5234 14.8789 19.3125 13.2148 19.2188 11.8672C19.207 11.082 19.1484 10.3672 19.0781 9.67578C18.5273 9.86328 17.8008 9.96875 17.2266 9.93359C17.2969 10.5547 17.3438 11.2344 17.3555 12.0078C17.4609 14.3047 17.8594 15.8047 18.6914 16.7422C19.3125 17.4336 20.0039 18.1133 20.2148 18.4648V18.6055H2.66016V18.4648C2.87109 18.1133 3.57422 17.4336 4.18359 16.7422C5.02734 15.8047 5.42578 14.3047 5.53125 12.0078C5.625 6.89844 7.14844 5.25781 9.15234 4.71875C9.44531 4.64844 9.60938 4.49609 9.62109 4.20312C9.65625 2.97266 10.3594 2.11719 11.4375 2.11719C11.6484 2.11719 11.8477 2.15234 12.0117 2.21094C12.2344 1.67188 12.5273 1.16797 12.9023 0.722656C12.4688 0.523438 11.9766 0.394531 11.4375 0.394531C9.71484 0.394531 8.44922 1.61328 8.0625 3.13672C4.94531 4.26172 3.75 7.25 3.66797 11.8672C3.57422 13.2148 3.36328 14.8789 2.58984 15.6875C1.57031 16.7305 0.386719 17.7852 0.386719 18.957C0.386719 19.8008 1.04297 20.375 2.15625 20.375Z" fill="#1A0136"/>
</svg>
