<svg width="35" height="31" viewBox="0 0 35 31" fill="none" xmlns="http://www.w3.org/2000/svg">
<path d="M2 4.99998L0.75 0.833313M15.3333 27.5C15.3333 28.163 15.0699 28.7989 14.6011 29.2677C14.1323 29.7366 13.4964 30 12.8333 30C12.1703 30 11.5344 29.7366 11.0656 29.2677C10.5967 28.7989 10.3333 28.163 10.3333 27.5M25.3333 27.5C25.3333 28.163 25.0699 28.7989 24.6011 29.2677C24.1323 29.7366 23.4964 30 22.8333 30C22.1703 30 21.5344 29.7366 21.0656 29.2677C20.5967 28.7989 20.3333 28.163 20.3333 27.5M2 4.99998H33.6667L28.6667 21.6666H7L2 4.99998Z" stroke="#1A0136" stroke-width="1.5" stroke-linecap="round" stroke-linejoin="round"/>
</svg>
